<svg width="673" height="116" viewBox="0 0 673 116" fill="none" xmlns="http://www.w3.org/2000/svg">
<path d="M92.752 93.8882C92.752 93.8882 82.6891 105 60.9113 105C31.4736 105 13 83.9776 13 58C13 32.0224 31.4736 11 60.9113 11C82.8393 11 92.752 22.1118 92.752 22.1118L82.3887 36.0767C82.3887 36.0767 73.0768 28.4185 61.2116 28.4185C43.9396 28.4185 31.774 40.8818 31.774 58C31.774 75.1182 43.9396 87.7316 61.2116 87.7316C74.8791 87.7316 82.3887 79.9233 82.3887 79.9233L92.752 93.8882Z" fill="white"/>
<path d="M168.743 12.9521H189.769L155.676 68.6614V103.048H137.503V68.5112L103.716 12.9521H124.743L143.367 44.3355L145.92 50.0415H147.572L150.275 44.3355L168.743 12.9521Z" fill="white"/>
<path d="M210.052 79.623C210.052 79.623 221.917 88.3323 236.636 88.3323C247.6 88.3323 251.955 83.9776 251.955 78.2716C251.955 72.5655 248.05 69.4121 232.43 65.0575C212.004 59.3514 201.341 52.1438 201.341 37.7284C201.341 21.6613 213.356 11 236.486 11C259.615 11 270.579 20.3099 270.579 20.3099L260.817 35.1757C260.817 35.1757 251.204 27.6677 236.486 27.6677C226.573 27.6677 221.767 31.1214 221.767 36.6773C221.767 42.2332 226.423 44.4856 240.541 48.3898C262.619 54.246 272.682 62.0543 272.682 76.6198C272.682 92.3866 261.718 105 237.086 105C212.455 105 200.139 93.4377 200.139 93.4377L210.052 79.623Z" fill="white"/>
<path d="M421 105C421 105 356.289 105 334.511 105C305.073 105 286.6 83.9776 286.6 58C286.6 32.0224 305.073 11 334.511 11C356.439 11 366.352 22.1118 366.352 22.1118L355.988 36.0767C355.988 36.0767 346.676 28.4185 334.811 28.4185C317.539 28.4185 305.374 40.8818 305.374 58C305.374 75.1182 317.539 87.7316 334.811 87.7316C348.479 87.7316 417 87.7316 417 87.7316L421 105Z" fill="white"/>
<path d="M482.022 64.607V12.9521H500.196V64.607C500.196 77.0703 507.555 87.5815 522.424 87.5815C537.293 87.5815 544.352 77.2205 544.352 64.607V12.9521H562.525V64.607C562.525 87.8818 547.656 105 522.424 105C497.192 105 482.022 87.8818 482.022 64.607Z" fill="white"/>
<path d="M583.102 12.9521H660V28.869H630.713V103.048H612.539V28.869H583.102V12.9521Z" fill="white"/>
<g style="mix-blend-mode:multiply">
<rect x="373" y="88" width="49" height="17" fill="url(#paint0_linear_2003_60)"/>
</g>
<path d="M422.758 87.5031C422.053 87.5488 421.334 87.5815 420.609 87.5815C403.788 87.5815 391.773 75.1182 391.773 58C391.773 40.8818 403.788 28.4185 420.609 28.4185C437.431 28.4185 449.714 40.8491 449.747 57.9347H468.37C468.338 31.9897 450.171 11 420.609 11C391.048 11 372.999 32.0224 372.999 58C372.999 83.9776 391.172 105 420.609 105C421.334 105 422.046 104.974 422.758 104.954V87.5097V87.5031Z" fill="#2CE5C4"/>
<defs>
<linearGradient id="paint0_linear_2003_60" x1="373" y1="96.5" x2="422" y2="96.5" gradientUnits="userSpaceOnUse">
<stop stop-color="white" stop-opacity="0"/>
<stop offset="1" stop-color="#737373"/>
</linearGradient>
</defs>
</svg>
